<svg width="549" height="241" viewBox="0 0 549 241" fill="none" xmlns="http://www.w3.org/2000/svg">
<path d="M216.354 61.1005C216.624 58.4305 216.324 56.0605 215.914 53.7505C215.884 53.5605 215.844 53.3705 215.814 53.1805C214.044 43.5405 208.684 35.9905 201.664 29.5205C199.414 27.4405 196.854 25.6105 194.094 24.1105C189.584 21.6605 184.534 20.0905 179.414 19.7805C178.804 19.2805 178.194 18.7805 177.574 18.2905C169.314 11.7705 159.614 6.30047 149.634 3.22047C144.334 1.59047 138.974 0.0504695 133.374 0.000469536C131.474 -0.0195305 130.034 0.600494 129.144 1.65049C128.094 2.89049 127.824 4.74049 128.514 6.86049C129.204 8.98049 133.934 26.6305 138.364 40.8205C140.014 46.1105 141.624 50.9205 142.964 54.2705C139.634 50.3305 135.414 44.4605 132.114 36.5805C129.624 30.6605 128.344 25.2405 127.654 20.9505C127.654 20.9505 125.544 20.6205 125.144 20.5305C108.344 16.9105 91.454 16.0705 74.654 20.1605C40.804 28.4105 18.184 49.5105 5.98398 81.8005C2.26398 91.6605 0.413986 101.77 0.0639858 112.01C-0.186014 119.19 0.303982 126.431 1.40398 133.701C5.68398 162.181 18.944 185.541 42.734 202.011C66.344 218.361 92.324 222.391 119.844 213.511C134.354 208.831 146.234 200.211 155.174 187.761C164.804 174.351 167.834 159.2 167.254 143.12C167.234 142.61 167.214 142.1 167.184 141.58C167.174 141.28 166.954 140.99 166.844 140.74H107.534C107.484 141.88 107.444 143.02 107.414 144.16C107.324 147.91 107.364 151.62 107.574 155.52H152.124C152.124 155.52 151.924 157.48 151.774 158.3C149.554 170.82 143.344 181.04 133.684 189.14C121.874 199.05 108.184 203.23 92.834 201.78C75.404 200.14 61.504 192.08 51.394 177.89C43.444 166.74 40.464 154.551 41.204 141.751C41.434 137.881 41.994 133.96 42.864 129.99C45.844 116.39 51.664 103.83 57.724 91.3905C57.984 90.8505 58.134 90.1205 59.104 89.9305C60.654 92.3805 61.924 94.9705 63.094 97.5605C63.814 99.1505 64.494 100.73 65.174 102.28C64.914 103.17 64.424 103.5 64.024 103.92C53.864 114.59 48.094 126.54 47.204 139.77C46.804 145.69 47.374 151.86 48.974 158.29C51.854 169.9 58.764 179.641 67.924 186.311C80.854 195.741 98.274 199.06 115.184 192.91C120.284 191.06 124.804 188.591 128.754 185.511C135.634 180.161 140.774 172.981 144.084 164.061C144.364 163.311 144.544 162.581 144.544 161.631H129.694C128.684 163.571 127.754 165.45 126.504 167.16C111.574 187.5 79.424 185.4 66.994 163.27C63.024 156.21 61.474 148.32 62.194 140.59C63.014 131.82 66.754 123.27 73.214 116.35C89.284 99.1305 117.114 96.8805 136.494 115.15C136.494 115.15 136.504 115.16 136.524 115.17H157.514C155.944 112.53 153.974 110.12 151.854 107.83L151.844 107.82C146.674 102.25 140.764 97.6105 133.844 94.4105C130.904 93.0505 128.584 91.2205 126.854 88.4105C123.984 83.7605 120.814 79.3005 117.814 74.7405C117.144 73.7305 116.394 72.7305 115.874 71.1105C117.714 71.6305 119.544 72.1605 121.364 72.6705C124.404 73.5405 127.414 74.4005 130.394 75.2505C133.854 76.2405 137.284 77.2205 140.714 78.2005C140.694 78.3805 140.674 78.5605 140.654 78.7405C138.594 79.0705 136.514 79.2605 134.384 79.4105C132.214 79.5605 129.994 79.6505 127.674 79.7905C130.104 82.3305 132.864 85.1905 135.364 87.8005C136.194 88.6705 136.994 89.5105 137.754 90.2905C138.424 90.2905 139.094 90.2905 139.774 90.2905C149.644 90.3205 161.014 90.2905 170.474 88.8105C180.664 87.2205 190.604 84.7705 199.764 79.8205C204.464 77.2805 208.714 74.1505 212.124 69.9805C212.674 69.3105 213.424 68.6905 213.334 67.6705C212.704 67.2405 212.034 67.3705 211.384 67.3805C210.054 67.3805 208.714 67.3805 207.374 67.3805C202.164 67.3805 196.964 67.4005 191.754 67.4105C186.704 67.4205 181.644 67.5805 176.604 67.2205C172.584 66.9405 169.074 65.4005 166.034 62.7805C165.644 62.4405 164.464 61.1105 164.464 61.1105H216.354V61.1005ZM110.904 54.9005C108.774 54.5505 106.624 54.4705 104.484 54.9305C100.864 55.7205 98.214 58.0805 97.074 61.1605C96.404 62.9505 96.244 64.9805 96.694 67.0905C97.244 69.6305 98.404 71.9205 99.634 74.1705C100.664 76.0505 101.784 77.8705 102.944 79.6705C104.034 81.3505 105.144 83.0105 106.244 84.6805C106.684 85.3505 107.774 87.1605 107.774 87.1605C107.774 87.1605 95.904 85.6605 81.294 92.0005C78.284 87.6105 70.024 76.0505 68.624 74.6305C64.554 70.5105 59.784 69.7105 54.494 71.7905C51.374 73.0205 48.774 75.0805 46.284 77.2905C40.304 82.6005 35.444 88.8905 30.594 95.2005C30.074 95.8905 28.364 98.0405 28.254 98.1705C28.384 97.8105 33.984 82.7305 43.144 72.9105C44.354 71.6105 45.634 70.4005 46.974 69.3305C48.034 68.4805 49.134 67.7205 50.264 67.0605C56.144 63.6805 62.364 63.6605 67.794 66.4905C69.864 67.5705 71.804 69.0605 73.574 70.9305C75.964 73.4605 78.094 76.2105 80.054 79.0905C81.104 80.6405 82.194 82.1705 83.324 83.8005C87.864 82.0105 92.094 80.9805 95.704 80.3805C94.694 78.4905 93.704 76.6305 92.734 74.7605C92.704 74.7005 92.674 74.6505 92.644 74.5905C91.094 71.6105 90.204 68.4605 90.204 65.0705C90.204 63.8005 90.324 62.5705 90.564 61.4005C91.564 56.4605 94.604 52.4605 99.194 50.4505C100.144 50.0305 101.154 49.7005 102.234 49.4705C113.084 47.1105 122.324 50.9305 130.874 57.7105C129.904 58.3805 129.194 58.0205 128.534 57.9105C122.664 56.9205 116.794 55.8705 110.924 54.9005H110.904ZM166.004 36.7805C167.604 29.9505 173.724 25.2005 181.524 25.2105C188.964 25.2205 195.214 30.3905 196.874 37.3205C197.154 38.4905 197.304 39.7005 197.304 40.9605C197.304 46.3805 194.664 51.0205 190.524 53.7505C188.014 55.4105 184.954 56.3605 181.604 56.3505C178.244 56.3405 175.184 55.4005 172.664 53.7505C168.324 50.9305 165.564 46.0605 165.594 40.3305C165.594 39.1005 165.744 37.9205 166.004 36.7905V36.7805Z" fill="white"/>
<path d="M181.144 30.8605C186.854 30.8305 191.594 35.2505 191.614 40.6205C191.634 46.1105 187.034 50.8505 181.604 50.9405C175.994 51.0305 171.224 46.2005 171.244 40.4605C171.264 35.0105 175.504 30.9005 181.154 30.8705L181.144 30.8605ZM184.064 36.4605C182.554 36.4405 181.454 37.5705 181.444 39.1205C181.444 40.7605 182.764 42.1605 184.354 42.1805C185.894 42.2005 187.204 40.9005 187.184 39.3805C187.174 37.9205 185.634 36.4805 184.064 36.4605Z" fill="white"/>
<path d="M211.284 203.62C201.004 203.62 192.604 200.81 186.074 195.19C179.544 189.57 176.284 181.82 176.284 171.93C176.284 162.04 179.644 153.81 186.364 147.23C193.084 140.65 201.564 137.36 211.784 137.36C222.004 137.36 230.414 140.31 236.994 146.22C243.574 152.12 246.864 160.07 246.864 170.06C246.864 180.05 243.504 188.13 236.784 194.33C230.064 200.52 221.564 203.62 211.294 203.62H211.284ZM195.004 169.201C195.004 175.731 196.514 181.61 199.544 186.84C202.564 192.07 206.864 194.69 212.434 194.69C218.004 194.69 222.014 192.51 224.464 188.14C226.914 183.77 228.134 178.27 228.134 171.65C228.134 165.03 226.674 159.1 223.744 153.86C220.814 148.63 216.494 146.01 210.784 146.01C205.074 146.01 201.014 148.24 198.614 152.71C196.214 157.18 195.014 162.671 195.014 169.201H195.004Z" fill="white"/>
<path d="M297.844 137.37C303.704 137.37 307.684 138.81 309.794 141.69C309.794 142.94 309.194 144.67 307.994 146.88C306.794 149.09 305.564 151.01 304.324 152.64C303.074 154.27 302.304 155.09 302.024 155.09L289.924 150.63H289.344C287.524 150.82 286.004 151.95 284.804 154.01C283.604 156.08 283.004 158.69 283.004 161.86V190.951C283.004 192.491 283.724 193.62 285.164 194.33C286.604 195.05 289.674 195.41 294.384 195.41L295.964 202.32C285.884 202.03 278.414 201.89 273.564 201.89C268.714 201.89 263.074 202.03 256.644 202.32L255.204 195.41C259.144 195.32 261.784 194.91 263.124 194.19C264.464 193.47 265.144 192.391 265.144 190.951V156.38C265.144 154.08 264.614 152.47 263.564 151.56C262.504 150.65 261.184 150.19 259.604 150.19C258.024 150.19 256.844 150.24 256.074 150.33L254.054 144.42C260.004 142.98 268.074 140.24 278.254 136.21C279.794 136.21 280.634 136.79 280.774 137.94C280.914 139.09 281.064 140.77 281.204 142.98C281.344 145.19 281.464 146.68 281.564 147.44C282.904 145.42 285.214 143.24 288.474 140.89C291.734 138.54 294.854 137.36 297.834 137.36L297.844 137.37Z" fill="white"/>
<path d="M373.454 191.951L374.604 197.86C372.974 198.53 369.584 199.66 364.454 201.24C359.314 202.82 356.124 203.62 354.874 203.62C353.624 203.62 352.714 203.48 352.134 203.19C351.554 202.9 351.034 202.37 350.554 201.61C350.074 200.84 349.734 200.24 349.544 199.81C349.354 199.38 349.064 198.56 348.684 197.36C348.304 196.16 348.054 195.41 347.964 195.13C342.784 200.8 336.874 203.63 330.254 203.63C325.934 203.63 322.284 202.26 319.304 199.52C316.324 196.78 314.844 193.4 314.844 189.37C314.844 183.9 317.024 179.841 321.394 177.201C325.764 174.561 333.994 171.94 346.094 169.35V164.17C346.094 158.6 345.464 154.45 344.224 151.71C342.974 148.97 340.794 147.61 337.674 147.61C334.554 147.61 332.134 148.09 330.404 149.05V158.27C330.404 158.85 328.864 159.42 325.794 160C322.724 160.58 320.464 160.86 319.024 160.86C317.584 160.86 316.864 159.13 316.864 155.67C316.864 154.04 317.154 152.31 317.724 150.48C318.304 148.66 318.924 147.36 319.594 146.59C321.324 144.67 325.044 142.65 330.754 140.54C336.464 138.43 340.814 137.37 343.794 137.37C350.034 137.37 354.904 139.29 358.414 143.13C361.914 146.97 363.674 152.64 363.674 160.13V189.37C363.674 191.2 364.444 192.11 365.974 192.11L369.864 191.97H373.464L373.454 191.951ZM334.134 179.92C331.924 181.6 330.824 183.57 330.824 185.83C330.824 188.09 331.614 189.89 333.204 191.23C334.784 192.58 336.874 193.25 339.474 193.25C342.074 193.25 344.514 192.2 346.814 190.08L346.524 175.53C340.474 176.78 336.344 178.24 334.134 179.92Z" fill="white"/>
<path d="M408.454 95.7405V190.94C408.454 192.48 409.004 193.61 410.114 194.32C411.214 195.04 413.494 195.4 416.954 195.4L418.534 202.31C408.454 202.02 401.444 201.88 397.504 201.88C393.564 201.88 388.384 202.02 381.954 202.31L380.514 195.4C384.454 195.31 387.114 194.9 388.504 194.18C389.894 193.46 390.594 192.38 390.594 190.94V112.73C390.594 109.18 390.014 106.92 388.864 105.96C387.714 105 386.394 104.52 384.904 104.52C383.414 104.52 382.194 104.57 381.234 104.66L379.364 99.1905C389.544 96.6005 397.794 94.0505 404.134 91.5605C405.954 91.5605 407.134 91.9205 407.664 92.6405C408.194 93.3605 408.454 94.3905 408.454 95.7405Z" fill="white"/>
<path d="M467.364 139.53L480.754 139.96C482.674 139.96 486.894 139.82 493.434 139.53L494.874 146.44C492.574 146.54 490.794 146.871 489.544 147.451C488.294 148.031 487.284 149.18 486.524 150.91C465.204 200.17 454.424 225.06 454.194 225.59C453.954 226.12 453.094 227.61 451.604 230.06C450.114 232.51 448.774 234.28 447.574 235.39C446.374 236.49 444.694 237.601 442.534 238.701C440.374 239.801 437.784 240.36 434.754 240.36C431.724 240.36 428.964 239.3 426.474 237.19C426.474 235.65 427.124 233.42 428.424 230.49C429.724 227.56 430.704 226.1 431.374 226.1C433.294 226.58 435.744 226.82 438.714 226.82C441.114 226.82 443.874 223.89 446.994 218.03C450.114 212.17 452.734 206.27 454.844 200.32L432.954 152.79C431.034 148.57 427.724 146.451 423.014 146.451L421.434 139.54C431.514 139.83 438.264 139.97 441.674 139.97C445.084 139.97 450.054 139.83 456.584 139.54L458.024 146.451C454.564 146.551 452.334 146.95 451.324 147.67C450.314 148.39 450.104 149.52 450.674 151.05L462.634 182.16L474.734 150.91C475.314 149.47 475.184 148.37 474.374 147.6C473.554 146.83 471.754 146.451 468.974 146.451L467.394 139.54L467.364 139.53Z" fill="white"/>
<path d="M521.944 194.69C529.624 194.69 533.464 192.191 533.464 187.201C533.464 183.941 529.524 180.82 521.654 177.84C518.384 176.59 515.144 175.15 511.934 173.52C508.714 171.89 505.954 169.58 503.654 166.61C501.354 163.64 500.194 160.13 500.194 156.1C500.194 150.34 502.574 145.78 507.324 142.42C512.074 139.06 517.524 137.38 523.674 137.38C529.824 137.38 536.494 138.73 543.694 141.41C544.944 142.56 545.564 144.94 545.564 148.54C545.564 152.14 545.184 155.67 544.414 159.13L538.074 158.55C537.494 154.81 536.004 151.78 533.604 149.48C531.204 147.18 528.344 146.02 525.034 146.02C521.724 146.02 519.224 146.72 517.544 148.11C515.864 149.5 515.024 151.11 515.024 152.93C515.024 154.75 516.174 156.39 518.484 157.83C520.794 159.27 523.594 160.62 526.914 161.86C530.224 163.11 533.544 164.55 536.854 166.18C540.164 167.81 542.974 170.12 545.274 173.09C547.584 176.07 548.734 179.57 548.734 183.6C548.734 189.75 546.384 194.6 541.674 198.15C536.964 201.7 530.994 203.48 523.744 203.48C516.494 203.48 509.414 202.38 502.504 200.17C501.924 199.69 501.354 197.07 500.774 192.32C500.194 187.57 499.914 183.89 499.914 181.3V179.14L508.264 179.57C508.934 184.85 510.514 188.69 513.014 191.09C515.514 193.49 518.484 194.69 521.944 194.69Z" fill="white"/>
</svg>
